# xmcd CD database file
#
# Track frame offsets:
#	150
#	22172
#	39030
#	61937
#	88015
#	104990
#	121965
#	144555
#	161035
#	180147
#	201242
#
# Disc length: 2904 seconds
#
# Revision: 2
# Processed by: cddbd v1.5.2PL0 Copyright (c) Steve Scherf et al.
# Submitted via: CDex 1.70beta2
#
DISCID=940b560b
DTITLE=The Screeming Tribesmen - Formaldehyde
DYEAR=1993
DGENRE=
TTITLE0=Painted Memory
TTITLE1=I Can Fly
TTITLE2=Spinning 'Round
TTITLE3=So Alone
TTITLE4=Always Be There
TTITLE5=Day We Said Goodbye
TTITLE6=Looking On
TTITLE7=Planet Zoo
TTITLE8=From Where I'm Standing
TTITLE9=Fatal Fascination
TTITLE10=Got You On My Mind
EXTD=YEAR: 1993
EXTT0=
EXTT1=
EXTT2=
EXTT3=
EXTT4=
EXTT5=
EXTT6=
EXTT7=
EXTT8=
EXTT9=
EXTT10=
PLAYORDER=
